<svg width="38" height="36" viewBox="0 0 38 36" fill="none" xmlns="http://www.w3.org/2000/svg">
<g clip-path="url(#clip0_1207_4325)">
<path d="M19 3C27.7447 3 34.8333 9.7155 34.8333 18C34.8333 26.2845 27.7447 33 19 33C10.2552 33 3.16663 26.2845 3.16663 18C3.16663 9.7155 10.2552 3 19 3ZM19 6C15.6406 6 12.4187 7.26428 10.0433 9.51472C7.66781 11.7652 6.33329 14.8174 6.33329 18C6.33329 21.1826 7.66781 24.2348 10.0433 26.4853C12.4187 28.7357 15.6406 30 19 30C22.3594 30 25.5812 28.7357 27.9566 26.4853C30.3321 24.2348 31.6666 21.1826 31.6666 18C31.6666 14.8174 30.3321 11.7652 27.9566 9.51472C25.5812 7.26428 22.3594 6 19 6ZM19 22.5C19.4199 22.5 19.8226 22.658 20.1195 22.9393C20.4165 23.2206 20.5833 23.6022 20.5833 24C20.5833 24.3978 20.4165 24.7794 20.1195 25.0607C19.8226 25.342 19.4199 25.5 19 25.5C18.58 25.5 18.1773 25.342 17.8804 25.0607C17.5834 24.7794 17.4166 24.3978 17.4166 24C17.4166 23.6022 17.5834 23.2206 17.8804 22.9393C18.1773 22.658 18.58 22.5 19 22.5ZM19 9C19.4199 9 19.8226 9.15804 20.1195 9.43934C20.4165 9.72064 20.5833 10.1022 20.5833 10.5V19.5C20.5833 19.8978 20.4165 20.2794 20.1195 20.5607C19.8226 20.842 19.4199 21 19 21C18.58 21 18.1773 20.842 17.8804 20.5607C17.5834 20.2794 17.4166 19.8978 17.4166 19.5V10.5C17.4166 10.1022 17.5834 9.72064 17.8804 9.43934C18.1773 9.15804 18.58 9 19 9Z" fill="#8D94E2"/>
</g>
<defs>
<clipPath id="clip0_1207_4325">
<rect width="38" height="36" fill="white"/>
</clipPath>
</defs>
</svg>
