<svg width="41" height="41" viewBox="0 0 41 41" fill="none" xmlns="http://www.w3.org/2000/svg">
<path d="M5.125 32.4583H35.875V35.875H5.125V32.4583ZM10.25 27.3333C12.1292 27.3333 13.6667 25.7958 13.6667 23.9167C13.6667 23.0625 13.325 22.2083 12.8125 21.6958L15.0333 17.0833H15.375C16.2292 17.0833 17.0833 16.7417 17.5958 16.2292L22.2083 18.6208V18.7917C22.2083 20.6708 23.7458 22.2083 25.625 22.2083C27.5042 22.2083 29.0417 20.6708 29.0417 18.7917C29.0417 17.9375 28.7 17.2542 28.1875 16.5708L30.4083 11.9583H30.75C32.6292 11.9583 34.1667 10.4208 34.1667 8.54167C34.1667 6.6625 32.6292 5.125 30.75 5.125C28.8708 5.125 27.3333 6.6625 27.3333 8.54167C27.3333 9.39583 27.675 10.25 28.1875 10.7625L25.9667 15.375H25.625C24.7708 15.375 23.9167 15.7167 23.4042 16.2292L18.7917 14.0083V13.6667C18.7917 11.7875 17.2542 10.25 15.375 10.25C13.4958 10.25 11.9583 11.7875 11.9583 13.6667C11.9583 14.5208 12.3 15.375 12.8125 15.8875L10.5917 20.5H10.25C8.37083 20.5 6.83333 22.0375 6.83333 23.9167C6.83333 25.7958 8.37083 27.3333 10.25 27.3333Z" fill="#E8848E"/>
</svg>
