<svg width="30" height="36" viewBox="0 0 30 36" fill="none" xmlns="http://www.w3.org/2000/svg">
<path fill-rule="evenodd" clip-rule="evenodd" d="M6.41602 14.9481C6.41602 12.796 7.27094 10.732 8.79272 9.2102C10.3145 7.68842 12.3785 6.8335 14.5306 6.8335C16.6827 6.8335 18.7467 7.68842 20.2685 9.2102C21.7903 10.732 22.6452 12.796 22.6452 14.9481C22.6452 17.1002 21.7903 19.1642 20.2685 20.686C18.7467 22.2077 16.6827 23.0627 14.5306 23.0627C12.3785 23.0627 10.3145 22.2077 8.79272 20.686C7.27094 19.1642 6.41602 17.1002 6.41602 14.9481ZM14.5306 9.396C13.0581 9.396 11.6459 9.98095 10.6047 11.0222C9.56347 12.0634 8.97852 13.4756 8.97852 14.9481C8.97852 16.4206 9.56347 17.8328 10.6047 18.874C11.6459 19.9152 13.0581 20.5002 14.5306 20.5002C16.0031 20.5002 17.4153 19.9152 18.4565 18.874C19.4977 17.8328 20.0827 16.4206 20.0827 14.9481C20.0827 13.4756 19.4977 12.0634 18.4565 11.0222C17.4153 9.98095 16.0031 9.396 14.5306 9.396Z" fill="#C9DC7C"/>
<path fill-rule="evenodd" clip-rule="evenodd" d="M0.0516527 12.9953C0.343652 9.45358 1.95683 6.15118 4.5709 3.74377C7.18497 1.33635 10.6088 -1.08233e-05 14.1625 0H14.9005C18.4542 -1.08233e-05 21.878 1.33635 24.4921 3.74377C27.1061 6.15118 28.7193 9.45358 29.0113 12.9953C29.3363 16.9403 28.1175 20.8575 25.6117 23.9218L17.4237 33.9343C17.0733 34.3628 16.632 34.7081 16.1318 34.9452C15.6317 35.1823 15.085 35.3053 14.5315 35.3053C13.9779 35.3053 13.4313 35.1823 12.9311 34.9452C12.4309 34.7081 11.9897 34.3628 11.6393 33.9343L3.45124 23.9218C0.94531 20.8576 -0.273468 16.9403 0.0516527 12.9953ZM14.1625 2.5625C11.2523 2.56294 8.44868 3.65759 6.30812 5.62916C4.16755 7.60074 2.84655 10.3051 2.60732 13.2054C2.33672 16.4886 3.35093 19.7487 5.43632 22.2989L13.6244 32.3131C13.7344 32.4478 13.8731 32.5564 14.0303 32.631C14.1874 32.7055 14.3592 32.7442 14.5332 32.7442C14.7072 32.7442 14.879 32.7055 15.0361 32.631C15.1933 32.5564 15.332 32.4478 15.442 32.3131L23.6301 22.2989C25.7142 19.7481 26.7272 16.4881 26.4557 13.2054C26.2164 10.3048 24.8952 7.6002 22.7542 5.62858C20.6133 3.65697 17.8092 2.56251 14.8988 2.5625H14.1625Z" fill="#C9DC7C"/>
</svg>
