<svg width="33" height="43" viewBox="0 0 33 43" fill="none" xmlns="http://www.w3.org/2000/svg">
<path fill-rule="evenodd" clip-rule="evenodd" d="M7.28491 18.0414C7.28491 15.4439 8.25565 12.9528 9.98359 11.1161C11.7115 9.27941 14.0551 8.24756 16.4988 8.24756C18.9424 8.24756 21.286 9.27941 23.0139 11.1161C24.7419 12.9528 25.7126 15.4439 25.7126 18.0414C25.7126 20.6389 24.7419 23.1301 23.0139 24.9668C21.286 26.8035 18.9424 27.8353 16.4988 27.8353C14.0551 27.8353 11.7115 26.8035 9.98359 24.9668C8.25565 23.1301 7.28491 20.6389 7.28491 18.0414ZM16.4988 11.3404C14.8268 11.3404 13.2233 12.0464 12.041 13.3031C10.8587 14.5598 10.1945 16.2642 10.1945 18.0414C10.1945 19.8187 10.8587 21.5231 12.041 22.7798C13.2233 24.0365 14.8268 24.7425 16.4988 24.7425C18.1707 24.7425 19.7742 24.0365 20.9565 22.7798C22.1388 21.5231 22.803 19.8187 22.803 18.0414C22.803 16.2642 22.1388 14.5598 20.9565 13.3031C19.7742 12.0464 18.1707 11.3404 16.4988 11.3404Z" fill="#E8848E"/>
<path fill-rule="evenodd" clip-rule="evenodd" d="M0.05865 15.6846C0.390206 11.41 2.22192 7.42415 5.19011 4.51853C8.1583 1.61291 12.0459 -1.30631e-05 16.081 0H16.919C20.9542 -1.30631e-05 24.8418 1.61291 27.81 4.51853C30.7781 7.42415 32.6099 11.41 32.9414 15.6846C33.3104 20.4461 31.9265 25.1739 29.0813 28.8724L19.784 40.957C19.3862 41.4742 18.8851 41.8909 18.3172 42.1771C17.7492 42.4633 17.1286 42.6117 16.5 42.6117C15.8715 42.6117 15.2508 42.4633 14.6829 42.1771C14.1149 41.8909 13.6139 41.4742 13.216 40.957L3.91877 28.8724C1.07337 25.174 -0.310514 20.4461 0.05865 15.6846ZM16.081 3.0928C12.7766 3.09334 9.59321 4.41452 7.16266 6.79411C4.73212 9.1737 3.23216 12.4377 2.96053 15.9383C2.65327 19.9009 3.80487 23.8356 6.17276 26.9136L15.47 39.0003C15.595 39.1629 15.7524 39.2939 15.9309 39.3839C16.1094 39.4738 16.3044 39.5205 16.502 39.5205C16.6995 39.5205 16.8946 39.4738 17.073 39.3839C17.2515 39.2939 17.4089 39.1629 17.5339 39.0003L26.8312 26.9136C29.1977 23.835 30.3479 19.9003 30.0395 15.9383C29.7679 12.4374 28.2676 9.17305 25.8367 6.79341C23.4057 4.41377 20.2218 3.09282 16.9171 3.0928H16.081Z" fill="#E8848E"/>
</svg>
