<svg width="41" height="40" viewBox="0 0 41 40" fill="none" xmlns="http://www.w3.org/2000/svg">
<g clip-path="url(#clip0_886_1425)">
<path fill-rule="evenodd" clip-rule="evenodd" d="M13.9613 26.3818C20.5298 32.7901 26.6166 33.4918 28.4035 33.5568C30.5629 33.6334 32.7666 31.9134 33.7199 30.1518C32.1994 28.4118 30.2195 27.0618 28.0516 25.5984C26.7721 26.8451 25.1953 29.1618 23.0957 28.3318C21.9016 27.8634 18.953 26.5384 16.3769 24.0234C13.799 21.5101 12.4426 18.6334 11.9591 17.4701C11.1084 15.4184 13.4898 13.8768 14.7693 12.6284C13.2694 10.4784 11.9096 8.49678 10.1295 7.08845C8.29815 8.02178 6.5249 10.1551 6.60519 12.2901C6.67181 14.0334 7.39102 19.9718 13.9613 26.3818ZM28.2771 36.8884C25.8171 36.8001 18.8454 35.8601 11.544 28.7384C4.24427 21.6151 3.28248 14.8151 3.19023 12.4134C3.05356 8.75345 5.92698 5.19845 9.24627 3.81012C9.64598 3.64173 10.0837 3.57762 10.5165 3.62407C10.9492 3.67053 11.3622 3.82596 11.7148 4.07511C14.4618 6.03011 16.3564 8.99178 17.9844 11.3118C18.3231 11.7942 18.4782 12.377 18.423 12.9592C18.3678 13.5414 18.1057 14.0865 17.682 14.5001L15.3655 16.7618C15.9036 17.9201 16.9987 19.9168 18.7924 21.6668C20.5862 23.4168 22.6328 24.4851 23.8218 25.0101L26.1366 22.7501C26.5621 22.3359 27.1232 22.0805 27.7219 22.0285C28.3207 21.9764 28.9192 22.1309 29.4131 22.4651C31.839 24.1051 34.6885 25.9268 36.7658 28.5218C37.0419 28.8683 37.2176 29.2808 37.2744 29.7162C37.3312 30.1516 37.267 30.5938 37.0887 30.9968C35.6588 34.2518 32.0406 37.0234 28.2771 36.8884Z" fill="#E8848E"/>
</g>
<defs>
<clipPath id="clip0_886_1425">
<rect width="41" height="40" fill="white"/>
</clipPath>
</defs>
</svg>
