<svg width="41" height="41" viewBox="0 0 41 41" fill="none" xmlns="http://www.w3.org/2000/svg">
<path d="M6.15 15.375H34.85M6.15 25.625H34.85M5.125 20.5C5.125 22.5191 5.52269 24.5184 6.29535 26.3838C7.06802 28.2491 8.20053 29.9441 9.62823 31.3718C11.0559 32.7995 12.7509 33.932 14.6162 34.7046C16.4816 35.4773 18.4809 35.875 20.5 35.875C22.5191 35.875 24.5184 35.4773 26.3838 34.7046C28.2491 33.932 29.9441 32.7995 31.3718 31.3718C32.7995 29.9441 33.932 28.2491 34.7046 26.3838C35.4773 24.5184 35.875 22.5191 35.875 20.5C35.875 16.4223 34.2551 12.5116 31.3718 9.62823C28.4884 6.74486 24.5777 5.125 20.5 5.125C16.4223 5.125 12.5116 6.74486 9.62823 9.62823C6.74486 12.5116 5.125 16.4223 5.125 20.5Z" stroke="#E8848E" stroke-width="3.41667" stroke-linecap="round" stroke-linejoin="round"/>
<path d="M19.6459 5.125C16.768 9.73684 15.2422 15.0639 15.2422 20.5C15.2422 25.9361 16.768 31.2632 19.6459 35.875M21.3543 5.125C24.2322 9.73684 25.758 15.0639 25.758 20.5C25.758 25.9361 24.2322 31.2632 21.3543 35.875" stroke="#E8848E" stroke-width="3.41667" stroke-linecap="round" stroke-linejoin="round"/>
</svg>
