<svg width="44" height="44" viewBox="0 0 44 44" fill="none" xmlns="http://www.w3.org/2000/svg">
<path opacity="0.2" d="M35.7498 33C35.7498 34.4587 35.1704 35.8576 34.1389 36.8891C33.1075 37.9205 31.7085 38.5 30.2498 38.5H13.7498C12.2911 38.5 10.8922 37.9205 9.86074 36.8891C8.82929 35.8576 8.24983 34.4587 8.24983 33C8.24983 31.5413 8.82929 30.1424 9.86074 29.1109C10.8922 28.0795 12.2911 27.5 13.7498 27.5H30.2498C31.7085 27.5 33.1075 28.0795 34.1389 29.1109C35.1704 30.1424 35.7498 31.5413 35.7498 33ZM10.9998 17.875C10.9998 16.4163 11.5793 15.0174 12.6107 13.9859C13.6422 12.9545 15.0411 12.375 16.4998 12.375H10.8658C8.95987 12.3745 7.11257 13.0338 5.63777 14.2411C4.16296 15.4483 3.15163 17.1289 2.77561 18.9973C2.73853 19.1957 2.74556 19.3997 2.7962 19.5951C2.84684 19.7904 2.93984 19.9722 3.06861 20.1275C3.19737 20.2828 3.35875 20.4079 3.54129 20.4939C3.72383 20.5799 3.92306 20.6247 4.12483 20.625H10.9998V17.875ZM41.224 18.9973C40.848 17.1289 39.8367 15.4483 38.3619 14.2411C36.8871 13.0338 35.0398 12.3745 33.1339 12.375H27.4998C28.9585 12.375 30.3575 12.9545 31.3889 13.9859C32.4204 15.0174 32.9998 16.4163 32.9998 17.875V20.625H39.8748C40.0766 20.6247 40.2758 20.5799 40.4584 20.4939C40.6409 20.4079 40.8023 20.2828 40.9311 20.1275C41.0598 19.9722 41.1528 19.7904 41.2035 19.5951C41.2541 19.3997 41.2611 19.1957 41.224 18.9973Z" fill="#E8848E"/>
<path d="M17.8749 33C17.8749 33.3647 17.73 33.7144 17.4722 33.9723C17.2143 34.2301 16.8646 34.375 16.4999 34.375H13.7499C13.3852 34.375 13.0355 34.2301 12.7776 33.9723C12.5198 33.7144 12.3749 33.3647 12.3749 33C12.3749 32.6353 12.5198 32.2856 12.7776 32.0277C13.0355 31.7699 13.3852 31.625 13.7499 31.625H16.4999C16.8646 31.625 17.2143 31.7699 17.4722 32.0277C17.73 32.2856 17.8749 32.6353 17.8749 33ZM30.2499 31.625H27.4999C27.1352 31.625 26.7855 31.7699 26.5276 32.0277C26.2698 32.2856 26.1249 32.6353 26.1249 33C26.1249 33.3647 26.2698 33.7144 26.5276 33.9723C26.7855 34.2301 27.1352 34.375 27.4999 34.375H30.2499C30.6146 34.375 30.9643 34.2301 31.2222 33.9723C31.48 33.7144 31.6249 33.3647 31.6249 33C31.6249 32.6353 31.48 32.2856 31.2222 32.0277C30.9643 31.7699 30.6146 31.625 30.2499 31.625ZM17.1874 19.25C16.7795 19.25 16.3807 19.371 16.0415 19.5976C15.7023 19.8242 15.438 20.1463 15.2819 20.5232C15.1258 20.9001 15.0849 21.3148 15.1645 21.7149C15.2441 22.115 15.4405 22.4825 15.729 22.7709C16.0174 23.0594 16.3849 23.2558 16.785 23.3354C17.1851 23.415 17.5998 23.3741 17.9767 23.218C18.3535 23.0619 18.6757 22.7975 18.9023 22.4584C19.1289 22.1192 19.2499 21.7204 19.2499 21.3125C19.2499 20.7655 19.0326 20.2409 18.6458 19.8541C18.259 19.4673 17.7344 19.25 17.1874 19.25ZM26.8124 19.25C26.4045 19.25 26.0057 19.371 25.6665 19.5976C25.3273 19.8242 25.063 20.1463 24.9069 20.5232C24.7508 20.9001 24.7099 21.3148 24.7895 21.7149C24.8691 22.115 25.0655 22.4825 25.354 22.7709C25.6424 23.0594 26.0099 23.2558 26.41 23.3354C26.8101 23.415 27.2248 23.3741 27.6017 23.218C27.9785 23.0619 28.3007 22.7975 28.5273 22.4584C28.7539 22.1192 28.8749 21.7204 28.8749 21.3125C28.8749 20.7655 28.6576 20.2409 28.2708 19.8541C27.884 19.4673 27.3594 19.25 26.8124 19.25ZM42.0044 20.9894C41.7466 21.3051 41.4217 21.5596 41.0534 21.7344C40.6851 21.9092 40.2826 21.9999 39.8749 22H34.3749V27.5C35.5292 28.3658 36.3819 29.5728 36.8122 30.9501C37.2424 32.3274 37.2284 33.8052 36.7721 35.1741C36.3158 36.543 35.4403 37.7336 34.2698 38.5773C33.0992 39.421 31.6928 39.875 30.2499 39.875H13.7499C12.3069 39.875 10.9006 39.421 9.73 38.5773C8.55943 37.7336 7.68399 36.543 7.22769 35.1741C6.77139 33.8052 6.75737 32.3274 7.18761 30.9501C7.61784 29.5728 8.47053 28.3658 9.62489 27.5V22H4.12489C3.72044 21.9993 3.32111 21.9095 2.95537 21.7368C2.58963 21.5641 2.26647 21.3129 2.00894 21.0011C1.75141 20.6892 1.56583 20.3244 1.46545 19.9326C1.36506 19.5408 1.35233 19.1317 1.42817 18.7344C1.86905 16.5551 3.04917 14.595 4.7689 13.1856C6.48862 11.7762 8.64238 11.0042 10.8658 11H11.1477C10.2301 10.1056 9.50097 9.03644 9.00327 7.85566C8.50557 6.67488 8.24941 5.40638 8.24989 4.125C8.24989 3.76033 8.39475 3.41059 8.65261 3.15273C8.91048 2.89487 9.26021 2.75 9.62489 2.75C9.98956 2.75 10.3393 2.89487 10.5972 3.15273C10.855 3.41059 10.9999 3.76033 10.9999 4.125C10.9999 5.94836 11.7242 7.69705 13.0135 8.98636C14.3028 10.2757 16.0515 11 17.8749 11H26.1249C27.0277 11 27.9217 10.8222 28.7558 10.4767C29.5899 10.1312 30.3478 9.62476 30.9862 8.98636C31.6246 8.34796 32.1311 7.59006 32.4766 6.75595C32.8221 5.92184 32.9999 5.02784 32.9999 4.125C32.9999 3.76033 33.1448 3.41059 33.4026 3.15273C33.6605 2.89487 34.0102 2.75 34.3749 2.75C34.7396 2.75 35.0893 2.89487 35.3472 3.15273C35.605 3.41059 35.7499 3.76033 35.7499 4.125C35.7504 5.40638 35.4942 6.67488 34.9965 7.85566C34.4988 9.03644 33.7697 10.1056 32.8521 11H33.1339C35.3574 11.0042 37.5112 11.7762 39.2309 13.1856C40.9506 14.595 42.1307 16.5551 42.5716 18.7344C42.6497 19.1288 42.6393 19.5356 42.5412 19.9256C42.4431 20.3155 42.2598 20.6788 42.0044 20.9894ZM9.62489 19.25V17.875C9.62239 16.3871 10.1051 14.9389 10.9999 13.75H10.8624C9.27826 13.7526 7.7434 14.3009 6.51623 15.3027C5.28907 16.3044 4.44456 17.6985 4.12489 19.25H9.62489ZM34.3749 33C34.3749 31.906 33.9403 30.8568 33.1667 30.0832C32.3931 29.3096 31.3439 28.875 30.2499 28.875H13.7499C12.6559 28.875 11.6067 29.3096 10.8331 30.0832C10.0595 30.8568 9.62489 31.906 9.62489 33C9.62489 34.094 10.0595 35.1432 10.8331 35.9168C11.6067 36.6904 12.6559 37.125 13.7499 37.125H30.2499C31.3439 37.125 32.3931 36.6904 33.1667 35.9168C33.9403 35.1432 34.3749 34.094 34.3749 33ZM31.6249 26.2625V17.875C31.6249 16.781 31.1903 15.7318 30.4167 14.9582C29.6431 14.1846 28.5939 13.75 27.4999 13.75H16.4999C15.4059 13.75 14.3567 14.1846 13.5831 14.9582C12.8095 15.7318 12.3749 16.781 12.3749 17.875V26.2625C12.8275 26.1713 13.2881 26.1252 13.7499 26.125H30.2499C30.7116 26.1252 31.1722 26.1713 31.6249 26.2625ZM39.8749 19.25C39.5555 17.6983 38.7111 16.3041 37.4839 15.3023C36.2566 14.3005 34.7216 13.7523 33.1374 13.75H32.9999C33.8946 14.9389 34.3774 16.3871 34.3749 17.875V19.25H39.8749Z" fill="#E8848E"/>
</svg>
