<svg width="1440" height="3502" viewBox="0 0 1440 3502" fill="none" xmlns="http://www.w3.org/2000/svg">
<mask id="mask0_263_431" style="mask-type:alpha" maskUnits="userSpaceOnUse" x="-453" y="1780" width="2526" height="1722">
<rect x="-452.869" y="2834.53" width="2445.23" height="739.397" transform="rotate(-25.5229 -452.869 2834.53)" fill="#7C4F4F"/>
</mask>
<g mask="url(#mask0_263_431)">
<rect width="288.423" height="414.224" rx="27" transform="matrix(1 0 0 -1 407 3036.22)" fill="#F6F6F6"/>
<rect width="288.423" height="236.261" rx="27" transform="matrix(1 0 0 -1 749.55 2865.69)" fill="#F6F6F6"/>
<rect width="288.423" height="236.261" rx="27" transform="matrix(1 0 0 -1 1102 2393.26)" fill="#F6F6F6"/>
<rect width="288.423" height="236.261" rx="27" transform="matrix(1 0 0 -1 407 3316.26)" fill="#F6F6F6"/>
<rect width="288.423" height="236.261" rx="27" transform="matrix(1 0 0 -1 749.55 3151.05)" fill="#F6F6F6"/>
<rect width="288.423" height="236.261" rx="27" transform="matrix(1 0 0 -1 1102 2103.26)" fill="#F6F6F6"/>
<rect width="288.423" height="414.224" rx="27" transform="matrix(1 0 0 -1 407 2578.22)" fill="#F6F6F6"/>
<rect width="288.423" height="414.224" rx="27" transform="matrix(1 0 0 -1 749.55 2580.34)" fill="#F6F6F6"/>
<rect width="288.423" height="414.224" rx="27" transform="matrix(1 0 0 -1 1102 2861.22)" fill="#F6F6F6"/>
<rect x="338.423" y="2960.22" width="288.423" height="414.224" rx="27" transform="rotate(180 338.423 2960.22)" fill="#F6F6F6"/>
<rect x="338.423" y="3439.22" width="288.423" height="414.224" rx="27" transform="rotate(180 338.423 3439.22)" fill="#F6F6F6"/>
</g>
<mask id="mask1_263_431" style="mask-type:alpha" maskUnits="userSpaceOnUse" x="-432" y="0" width="2227" height="1851">
<rect width="2067.62" height="896.953" transform="matrix(0.851911 0.523687 -0.517525 0.855668 33.1953 0.444336)" fill="#7C4F4F"/>
</mask>
<g mask="url(#mask1_263_431)">
<rect x="403" y="569" width="291.754" height="422.424" rx="27" fill="#F6F6F6"/>
<rect x="745" y="782" width="291.754" height="240.938" rx="27" fill="#F6F6F6"/>
<rect x="1098" y="1237" width="291.754" height="240.938" rx="27" fill="#F6F6F6"/>
<rect x="403" y="277" width="291.754" height="240.938" rx="27" fill="#F6F6F6"/>
<rect x="738.938" y="472.882" width="291.754" height="240.938" rx="27" fill="#F6F6F6"/>
<rect x="1098" y="1540" width="291.754" height="240.938" rx="27" fill="#F6F6F6"/>
<rect x="403" y="1042" width="291.754" height="422.424" rx="27" fill="#F6F6F6"/>
<rect x="745" y="1087" width="291.754" height="422.424" rx="27" fill="#F6F6F6"/>
<rect x="1098" y="753" width="291.754" height="422.424" rx="27" fill="#F6F6F6"/>
<rect width="291.754" height="422.424" rx="27" transform="matrix(-1 0 0 1 341.754 639)" fill="#F6F6F6"/>
<rect width="291.754" height="422.424" rx="27" transform="matrix(-1 0 0 1 336.999 170.927)" fill="#F6F6F6"/>
</g>
</svg>
