<svg width="41" height="41" viewBox="0 0 41 41" fill="none" xmlns="http://www.w3.org/2000/svg">
<path d="M30.75 15.375V17.9375H10.25V15.375H30.75ZM25.625 5.125V7.6875H10.25V5.125H25.625ZM20.5 35.875V23.0625H30.75V35.875H20.5ZM23.0625 25.625V33.3125H28.1875V25.625H23.0625ZM30.75 10.25V12.8125H10.25V10.25H30.75ZM5.125 0H35.875V41H5.125V0ZM33.3125 38.4375V2.5625H7.6875V38.4375H33.3125ZM17.9375 33.3125V35.875H10.25V33.3125H17.9375ZM17.9375 23.0625V25.625H10.25V23.0625H17.9375ZM17.9375 28.1875V30.75H10.25V28.1875H17.9375Z" fill="#E8848E"/>
</svg>
